<svg viewBox="0 0 24 24" xmlns="http://www.w3.org/2000/svg">
<path fill="#C9A45C" d="M12 13.2c-2.1 0-4.6 1.7-4.6 4.1 0 1.8 1.5 2.9 3.3 2.9.9 0 1.6-.3 2.3-.8.7.5 1.4.8 2.3.8 1.8 0 3.3-1.1 3.3-2.9 0-2.4-2.5-4.1-4.6-4.1zM7.2 11.4c1 0 1.8-1.1 1.8-2.5S8.2 6.4 7.2 6.4 5.4 7.5 5.4 8.9s.8 2.5 1.8 2.5zm4-1.8c1.1 0 2-1.2 2-2.8S12.3 4 11.2 4s-2 1.2-2 2.8.9 2.8 2 2.8zm5.6 1.8c1 0 1.8-1.1 1.8-2.5s-.8-2.5-1.8-2.5S15 7.5 15 8.9s.8 2.5 1.8 2.5zm-2.8-1c1.1 0 2-1.2 2-2.8s-.9-2.8-2-2.8-2 1.2-2 2.8.9 2.8 2 2.8z"/>
</svg>